<?xml version="1.0" encoding="utf-8"?>
<!-- Generator: Adobe Illustrator 25.3.1, SVG Export Plug-In . SVG Version: 6.00 Build 0)  -->
<svg version="1.1" id="圖層_1" xmlns="http://www.w3.org/2000/svg" xmlns:xlink="http://www.w3.org/1999/xlink" x="0px" y="0px"
	 viewBox="0 0 332 332" style="enable-background:new 0 0 332 332;" xml:space="preserve">
<style type="text/css">
	.st0{fill:#0013FF;}
</style>
<path class="st0" d="M208.43,166L327.74,46.68c5.44-5.44,5.44-14.26,0-19.7L305.02,4.26c-5.44-5.44-14.26-5.44-19.7,0L166,123.57
	L46.68,4.26c-5.44-5.44-14.26-5.44-19.7,0L4.26,26.98c-5.44,5.44-5.44,14.26,0,19.7L123.57,166L4.26,285.32
	c-5.44,5.44-5.44,14.26,0,19.7l22.72,22.72c5.44,5.44,14.26,5.44,19.7,0L166,208.43l119.32,119.32c5.44,5.44,14.26,5.44,19.7,0
	l22.72-22.72c5.44-5.44,5.44-14.26,0-19.7L208.43,166z"/>
</svg>
